<svg width="26" height="26" viewBox="0 0 26 26" fill="none" xmlns="http://www.w3.org/2000/svg">
<path fill-rule="evenodd" clip-rule="evenodd" d="M19.4029 16.8885L22.9077 10.8181C23.3541 10.0447 23.0893 9.05571 22.3159 8.60925C21.7058 8.25708 20.8255 7.74892 20.2155 7.39656C19.959 7.24852 19.679 7.17886 19.4029 7.17983V4.04256C19.4029 2.70317 18.3171 1.61719 16.9775 1.61719H4.85067C3.51108 1.61719 2.42529 2.70317 2.42529 4.04256V21.8287C2.42529 23.1683 3.51108 24.2541 4.85067 24.2541H16.9775C17.6207 24.2541 18.2378 23.9985 18.6926 23.5437C19.1474 23.0889 19.4029 22.4719 19.4029 21.8287V16.8885ZM17.7861 8.37078V4.04256C17.7861 3.5961 17.424 3.23423 16.9775 3.23423H4.85067C4.4042 3.23423 4.04214 3.5961 4.04214 4.04256V21.8287C4.04214 22.2752 4.4042 22.6372 4.85067 22.6372H16.9775C17.1919 22.6372 17.3976 22.552 17.5491 22.4003C17.7009 22.2488 17.7861 22.0431 17.7861 21.8287V19.505L15.2138 21.4703C14.695 21.8665 13.9889 21.9121 13.4237 21.5858C12.8583 21.2594 12.5447 20.6251 12.6285 19.9778C12.8208 18.4929 13.0542 16.6906 13.0542 16.6906C13.068 16.5847 13.1026 16.4826 13.1559 16.3902L17.7861 8.37078ZM8.79471 17.2232C8.76852 17.2603 8.73941 17.2969 8.7107 17.3348C8.52035 17.5858 8.27374 17.8259 8.05604 18.0723C7.60686 18.5804 7.28865 19.1292 7.28865 19.7167C7.28865 20.037 7.40992 20.2532 7.56786 20.4107C7.73764 20.5801 8.00249 20.7148 8.38434 20.6938C8.64511 20.6797 9.07702 20.5388 9.55201 20.4676C9.91601 20.4129 10.3495 20.4037 10.6002 20.8886C10.8051 21.285 11.293 21.4404 11.6894 21.2355C12.0858 21.0308 12.2415 20.5427 12.0366 20.1463C11.4213 18.9557 10.4494 18.7506 9.54386 18.8399C9.61119 18.7675 9.67813 18.6953 9.74255 18.6224C10.1915 18.1142 10.5099 17.5655 10.5099 16.9779C10.5099 16.6824 10.43 16.451 10.3085 16.2626C10.0916 15.9253 9.68822 15.6985 9.12999 15.6174C8.84671 15.5763 8.50638 15.566 8.16761 15.5194C7.90334 15.4831 7.62161 15.4509 7.45047 15.2319C7.33134 15.0794 7.28244 14.8531 7.27585 14.5359C7.26673 14.0898 6.8971 13.7351 6.45102 13.7442C6.00495 13.7534 5.65007 14.123 5.65938 14.5693C5.67549 15.3541 5.89746 15.8819 6.19626 16.2525C6.64758 16.8122 7.31679 17.0412 8.00365 17.1287C8.24037 17.159 8.56576 17.197 8.79471 17.2232ZM17.8879 11.4279L19.9885 12.6406L16.7375 18.2714L14.232 20.1855L14.6371 17.0587L17.8879 11.4279ZM18.6964 10.0276L19.407 8.79687L21.5074 10.0096L20.7968 11.2403L18.6964 10.0276ZM6.46752 10.5104H12.9353C13.3814 10.5104 13.7436 10.1481 13.7436 9.70183C13.7436 9.25556 13.3814 8.89331 12.9353 8.89331H6.46752C6.02144 8.89331 5.65919 9.25556 5.65919 9.70183C5.65919 10.1481 6.02144 10.5104 6.46752 10.5104ZM6.46752 7.27646H15.3607C15.8068 7.27646 16.169 6.9142 16.169 6.46793C16.169 6.02186 15.8068 5.65961 15.3607 5.65961H6.46752C6.02144 5.65961 5.65919 6.02186 5.65919 6.46793C5.65919 6.9142 6.02144 7.27646 6.46752 7.27646Z" fill="#918F90"/>
</svg>
