<svg width="22" height="22" viewBox="0 0 22 22" fill="none" xmlns="http://www.w3.org/2000/svg">
<path d="M11.001 4.8125C10.5251 4.8125 10.0598 4.67138 9.66414 4.40697C9.26843 4.14257 8.96002 3.76677 8.77789 3.32708C8.59577 2.8874 8.54812 2.40358 8.64096 1.93682C8.73381 1.47005 8.96298 1.0413 9.2995 0.704775C9.63602 0.368255 10.0648 0.139082 10.5315 0.0462365C10.9983 -0.0466092 11.4821 0.00104261 11.9218 0.183166C12.3615 0.365289 12.7373 0.673704 13.0017 1.06941C13.2661 1.46512 13.4072 1.93034 13.4072 2.40625C13.4065 3.04422 13.1528 3.65586 12.7017 4.10697C12.2506 4.55808 11.6389 4.81182 11.001 4.8125Z" fill="#231F20" fill-opacity="0.6"/>
<path d="M18.5621 4.84681L18.5427 4.85197L18.5247 4.85756C18.4817 4.86959 18.4388 4.88248 18.3958 4.8958C17.5961 5.13041 13.7152 6.22439 10.9811 6.22439C8.44035 6.22439 4.91047 5.27908 3.78125 4.9581C3.66887 4.91465 3.5541 4.87764 3.4375 4.84724C2.62109 4.6324 2.0625 5.4617 2.0625 6.21967C2.0625 6.97033 2.73711 7.32783 3.41816 7.58435V7.59638L7.50965 8.87428C7.92773 9.03455 8.03945 9.19826 8.09402 9.34006C8.27149 9.7951 8.12969 10.6962 8.07941 11.0107L7.8302 12.9443L6.44703 20.5149C6.44274 20.5356 6.43887 20.5566 6.43543 20.5781L6.42555 20.6327C6.32586 21.3266 6.83547 21.9999 7.80055 21.9999C8.64274 21.9999 9.01442 21.4186 9.17555 20.6275C9.17555 20.6275 10.3787 13.8569 10.9802 13.8569C11.5818 13.8569 12.821 20.6275 12.821 20.6275C12.9822 21.4186 13.3538 21.9999 14.196 21.9999C15.1637 21.9999 15.6733 21.3236 15.571 20.6275C15.562 20.5682 15.5513 20.5098 15.5384 20.4531L14.1363 12.9451L13.8875 11.0115C13.7075 9.88533 13.8523 9.51322 13.9013 9.42599C13.9026 9.42394 13.9037 9.42178 13.9047 9.41955C13.9511 9.33361 14.1625 9.14111 14.6558 8.95592L18.492 7.61486C18.5156 7.60859 18.5388 7.60113 18.5616 7.59252C19.2491 7.33471 19.9366 6.97806 19.9366 6.22053C19.9366 5.46299 19.3785 4.6324 18.5621 4.84681Z" fill="#231F20" fill-opacity="0.6"/>
</svg>
