<svg width="186" height="48" viewBox="0 0 186 48" fill="none" xmlns="http://www.w3.org/2000/svg">
<g clip-path="url(#clip0_4325_69817)">
<path d="M158.872 11.1131C158.407 11.1131 158.009 11.2739 157.699 11.6068C157.389 11.9397 157.234 12.3415 157.234 12.8352C157.234 13.3289 157.389 13.7077 157.71 14.0292C158.031 14.3506 158.418 14.5114 158.872 14.5114H161.618C162.526 14.5114 163.301 14.1784 163.955 13.524C164.597 12.8582 164.929 12.0545 164.929 11.1131H158.883H158.872ZM145.143 7.47381C144.689 7.47381 144.302 7.64602 143.98 7.97895C143.659 8.31189 143.493 8.72519 143.493 9.19589C143.493 9.66659 143.648 10.0684 143.98 10.3899C144.302 10.7228 144.689 10.8835 145.143 10.8835H145.885C146.793 10.8835 147.568 10.5506 148.21 9.88472C148.863 9.21885 149.184 8.41521 149.184 7.47381H145.143ZM69.3214 5.16623C68.1477 5.76321 67.1734 6.58981 66.3873 7.62306C65.579 6.56685 64.5936 5.74025 63.4421 5.15475C62.2795 4.56924 61.0616 4.27075 59.7662 4.27075C57.4853 4.27075 55.5145 5.10883 53.8758 6.78498C52.2261 8.46113 51.4067 10.4817 51.4067 12.8582V21.3997C52.37 21.3997 53.1893 21.0552 53.8647 20.3549C54.5401 19.6546 54.8723 18.8051 54.8723 17.8063V12.8696C54.8723 11.4575 55.3484 10.2406 56.3006 9.21885C57.2528 8.19708 58.4043 7.69194 59.7662 7.69194C61.128 7.69194 62.2795 8.20856 63.2207 9.21885C64.1618 10.2406 64.6379 11.4575 64.6379 12.8696V17.8063C64.6379 18.7936 64.9811 19.6431 65.6565 20.3435C66.3319 21.0438 67.1512 21.3997 68.1034 21.3997V12.8582C68.1034 11.4461 68.5795 10.2291 69.5207 9.20737C70.4729 8.1856 71.6244 7.68046 72.9862 7.68046C74.3481 7.68046 75.4996 8.19708 76.4407 9.20737C77.3819 10.2291 77.858 11.4461 77.858 12.8582V17.7948C77.858 18.7821 78.2012 19.6317 78.8766 20.332C79.552 21.0323 80.3713 21.3882 81.3235 21.3882V12.8467C81.3235 10.4587 80.5042 8.43817 78.8766 6.7735C77.249 5.10883 75.2782 4.27075 72.9862 4.27075C71.7129 4.27075 70.4839 4.56924 69.3103 5.16623M87.8118 16.4745C86.8706 15.4642 86.3945 14.2588 86.3945 12.8467C86.3945 11.4346 86.8706 10.2177 87.8118 9.19589C88.7529 8.17412 89.9155 7.66898 91.2773 7.66898C92.6392 7.66898 93.8018 8.1856 94.7429 9.19589C95.684 10.2177 96.1601 11.4346 96.1601 12.8467V17.99H91.2773C89.9155 17.99 88.764 17.4848 87.8118 16.4745ZM85.398 6.7735C83.7483 8.44965 82.929 10.4702 82.929 12.8467C82.929 15.2232 83.7483 17.2322 85.398 18.8969C87.0367 20.5616 89.0075 21.3882 91.2884 21.3882H99.67V12.8467C99.67 10.4817 98.8506 8.44965 97.1898 6.7735C95.5401 5.09734 93.5692 4.25927 91.2884 4.25927C89.0075 4.25927 87.0367 5.09734 85.398 6.7735ZM104.187 6.7735C102.549 8.44965 101.729 10.4702 101.729 12.8467V21.3882C102.682 21.3882 103.49 21.0323 104.176 20.332C104.852 19.6317 105.195 18.7821 105.195 17.7948V12.8582C105.195 11.4461 105.671 10.2291 106.623 9.20737C107.575 8.1856 108.727 7.68046 110.089 7.68046C111.451 7.68046 112.591 8.19708 113.532 9.21885C114.484 10.2521 114.961 11.4575 114.961 12.8582V17.7948C114.961 18.7821 115.304 19.6317 115.979 20.332C116.655 21.0323 117.474 21.3882 118.426 21.3882V12.8467C118.426 10.4817 117.607 8.44965 115.968 6.7735C114.329 5.09734 112.37 4.25927 110.089 4.25927C107.808 4.25927 105.826 5.09734 104.187 6.7735ZM124.925 16.4745C123.984 15.4642 123.508 14.2588 123.508 12.8467C123.508 11.4346 123.984 10.2177 124.925 9.19589C125.867 8.17412 127.018 7.66898 128.391 7.66898C129.764 7.66898 130.904 8.1856 131.857 9.19589C132.798 10.2177 133.274 11.4346 133.274 12.8467V17.99H128.391C127.029 17.99 125.867 17.4848 124.925 16.4745ZM122.501 6.7735C120.851 8.44965 120.032 10.4702 120.032 12.8467C120.032 15.2232 120.851 17.2322 122.501 18.8969C124.15 20.5616 126.11 21.3882 128.391 21.3882H136.773V12.8467C136.773 10.4817 135.942 8.44965 134.292 6.7735C132.643 5.09734 130.672 4.25927 128.391 4.25927C126.11 4.25927 124.139 5.09734 122.501 6.7735ZM160.002 4.25927C157.721 4.25927 155.761 5.09734 154.122 6.7735C152.484 8.44965 151.664 10.4702 151.664 12.8467C151.664 15.2232 152.484 17.2322 154.122 18.8969C155.761 20.5616 157.721 21.3882 160.002 21.3882H164.896C164.896 20.4468 164.575 19.6431 163.921 18.9773C163.279 18.3114 162.493 17.9785 161.585 17.9785H159.991C158.64 17.9785 157.488 17.4733 156.547 16.4516C155.595 15.4413 155.119 14.2358 155.119 12.8352C155.119 11.4346 155.595 10.2291 156.547 9.19589C157.499 8.16264 158.64 7.6575 159.991 7.6575H161.585C162.493 7.6575 163.268 7.32456 163.921 6.67017C164.563 6.0043 164.896 5.20067 164.896 4.25927H160.002ZM178.082 9.127C179.057 10.1028 179.533 11.3083 179.533 12.7319V17.4963H179.522C179.522 17.5996 179.522 17.7029 179.522 17.7948H174.584C173.222 17.7948 172.048 17.3011 171.063 16.3253C170.077 15.3494 169.59 14.144 169.59 12.7204C169.59 11.2968 170.077 10.1028 171.063 9.11552C172.048 8.13968 173.222 7.64602 174.584 7.64602C175.946 7.64602 177.119 8.13968 178.082 9.11552M168.727 6.60129C167.11 8.30041 166.302 10.3439 166.302 12.7089C166.302 15.0739 167.11 17.1174 168.727 18.8165C170.343 20.5271 172.292 21.3767 174.584 21.3767H179.61C179.61 23.2825 179.887 27.9206 182.821 28.6324V17.7718V12.7204C182.821 10.3439 182.013 8.30041 180.419 6.60129C178.813 4.8907 176.865 4.04114 174.584 4.04114C172.303 4.04114 170.354 4.8907 168.727 6.60129ZM138.843 12.8237C138.843 15.1887 139.662 17.2093 141.301 18.874C142.94 20.5386 144.899 21.3652 147.18 21.3652H152.074C152.074 20.4238 151.753 19.6202 151.1 18.9543C150.447 18.2884 149.672 17.9555 148.764 17.9555H147.169C145.807 17.9555 144.656 17.4504 143.715 16.4401C142.774 15.4298 142.298 14.2243 142.298 12.8122V3.5934C142.298 2.60608 141.954 1.768 141.279 1.05621C140.592 0.344415 139.784 0 138.832 0V12.8352L138.843 12.8237Z" fill="white"/>
<path d="M182.856 28.6561C182.856 28.6561 182.768 28.725 183.875 28.748C184.716 28.7594 186.001 28.4609 186.001 28.4609V33.9371C186.001 33.9371 184.661 34.316 183.399 31.8132C182.878 30.7915 182.856 28.6561 182.856 28.6561Z" fill="white"/>
<path d="M25.9198 40.619H33.3048C33.3934 40.2172 33.4377 39.7924 33.4377 39.3561V36.9912H29.4185C28.4553 36.9912 27.6359 37.3471 26.9495 38.0588C26.263 38.7706 25.9198 39.6317 25.9198 40.619ZM10.6292 17.4973V10.586C10.6292 10.1497 10.6735 9.72495 10.7621 9.32313C10.9614 8.42765 11.4043 7.61254 12.0575 6.90075C13.0097 5.8675 14.1833 5.36236 15.5563 5.36236C15.6559 5.36236 15.7445 5.36236 15.8442 5.36236C17.0953 5.43124 18.1582 5.93638 19.044 6.90075C19.9962 7.93399 20.4723 9.15093 20.4723 10.5745V18.4501C20.4723 18.5649 20.4723 18.6683 20.4834 18.7716C20.5498 19.6326 20.882 20.3789 21.502 21.0103C22.1885 21.7221 23.0078 22.078 23.9711 22.078V10.5745C23.9711 9.15093 24.4472 7.92251 25.4104 6.90075C26.3626 5.8675 27.5363 5.36236 28.9092 5.36236C28.9314 5.36236 28.9424 5.36236 28.9646 5.36236C30.3154 5.37384 31.4669 5.89046 32.3969 6.90075C32.9505 7.50921 33.3491 8.17508 33.5816 8.92132H37.169C36.87 7.2222 36.1061 5.72974 34.8549 4.4554C33.2273 2.77925 31.2565 1.94117 28.9646 1.92969C28.9424 1.92969 28.9314 1.92969 28.9092 1.92969C27.6138 1.92969 26.3848 2.22818 25.2111 2.83665C24.0264 3.44511 23.041 4.27171 22.2549 5.31644C21.4356 4.24875 20.4391 3.42215 19.2765 2.82517C18.1914 2.2741 17.051 1.97561 15.8552 1.94117C15.7556 1.94117 15.667 1.94117 15.5674 1.94117C13.2644 1.94117 11.2825 2.77925 9.62164 4.47836C8.2487 5.87898 7.44044 7.52069 7.20793 9.4035C7.16364 9.79383 7.13042 10.1842 7.13042 10.5975V21.1366C8.10477 21.1366 8.9241 20.7807 9.61057 20.0804C10.286 19.3686 10.6292 18.519 10.6292 17.5087M19.4537 23.1571H16.8074V26.6817C17.4164 26.5324 17.9589 26.211 18.424 25.7173C19.1104 25.0055 19.4537 24.1559 19.4537 23.1571ZM25.0008 26.785H28.0899V23.1801C27.3038 23.2719 26.6173 23.6164 26.0305 24.2248C25.344 24.9366 25.0008 25.7862 25.0008 26.785ZM18.5236 9.32313H11.1385C11.0499 9.72495 11.0057 10.1497 11.0057 10.586V12.951H15.0248C15.9881 12.951 16.8074 12.5951 17.4939 11.8833C18.1804 11.1715 18.5236 10.3219 18.5236 9.33461M41.1771 25.0055C42.2068 24.1559 43.004 23.1342 43.5797 21.9172C44.1555 20.7118 44.4434 19.426 44.4434 18.0713C44.4434 17.9106 44.4434 17.7498 44.4323 17.5891C44.3326 15.4078 43.5244 13.5135 41.9964 11.9177C40.6456 10.4941 39.0623 9.65607 37.2465 9.41498C36.87 9.36906 36.4936 9.33461 36.095 9.33461H25.9308C25.9308 10.3449 26.2741 11.1945 26.9495 11.9062C27.6249 12.6066 28.4553 12.9625 29.4296 12.9625H36.095C36.5157 12.9625 36.9254 13.0084 37.3129 13.1002C38.1766 13.3069 38.9627 13.7546 39.6491 14.4434C40.5238 15.3274 41.011 16.3722 41.1217 17.5776C41.1328 17.7383 41.1439 17.8991 41.1439 18.0598C41.1439 19.4834 40.6456 20.6888 39.6602 21.6762C38.6637 22.6635 37.4901 23.1571 36.1061 23.1571H32.2862V26.785H36.1061C37.479 26.785 38.6637 27.2786 39.6602 28.2774C40.6567 29.2648 41.1439 30.4817 41.1439 31.9053C41.1439 31.9627 41.1439 32.0201 41.1439 32.0775C41.0996 33.4322 40.6124 34.5802 39.6602 35.5216C39.0734 36.1072 38.4312 36.509 37.7115 36.7501V40.4697C39.3502 40.1598 40.7896 39.3676 42.0186 38.0703C43.6019 36.4056 44.4101 34.408 44.4544 32.0775C44.4544 32.0201 44.4544 31.9627 44.4544 31.9053C44.4544 30.5736 44.1666 29.2877 43.5797 28.0708C43.004 26.8424 42.1957 25.8206 41.1882 25.0055M37.324 13.4791C36.9365 13.3872 36.5268 13.3413 36.1061 13.3413H33.8252V17.5202C33.8252 18.5075 34.1685 19.3686 34.8549 20.0804C35.5414 20.7922 36.3607 21.1481 37.324 21.1481V13.4906V13.4791ZM33.8252 32.4449V39.3561C33.8252 39.7924 33.7809 40.2172 33.6924 40.619C33.4931 41.5145 33.0613 42.3296 32.3969 43.0299C31.5112 43.9828 30.4372 44.4994 29.186 44.5683C29.0864 44.5683 28.9978 44.5683 28.8981 44.5683C27.5252 44.5683 26.3626 44.0517 25.4104 43.0299C24.4582 41.9967 23.9821 40.7797 23.9821 39.3561V31.469C23.9821 31.3887 23.9821 31.3198 23.9821 31.2509C23.9379 30.3554 23.5946 29.5747 22.9635 28.9089C22.277 28.1971 21.4577 27.8412 20.4944 27.8412V39.3447C20.4944 40.7682 20.0183 41.9967 19.0551 43.0184C18.1029 44.0402 16.9403 44.5568 15.5784 44.5568H15.5563C14.1833 44.5568 13.0208 44.0402 12.0686 43.0184C11.4928 42.3985 11.0942 41.7211 10.8728 40.9634H7.28543C7.57331 42.674 8.34835 44.178 9.61057 45.4753C11.2603 47.1514 13.2311 48.001 15.5563 48.001H15.5784C16.8628 48.001 18.0918 47.691 19.2654 47.094C20.4391 46.4855 21.4356 45.6589 22.2217 44.6142C23.041 45.6819 24.0264 46.5085 25.2001 47.1055C26.3626 47.7025 27.6027 48.001 28.9092 48.001C29.0089 48.001 29.0974 48.001 29.1971 48.001C31.3783 47.9321 33.2605 47.094 34.8439 45.4753C36.2168 44.0746 37.0251 42.4329 37.2576 40.5501C37.3019 40.1598 37.3351 39.7694 37.3351 39.3561V28.817C36.3607 28.817 35.5414 29.1729 34.8549 29.8732C34.1795 30.585 33.8363 31.4346 33.8363 32.4449M7.15257 36.4745C7.54009 36.5664 7.94976 36.6123 8.3705 36.6123H10.6513V32.4334C10.6513 31.4346 10.3081 30.585 9.62164 29.8732C8.93517 29.1614 8.11584 28.8056 7.15257 28.8056V36.4631V36.4745ZM18.5457 40.619C18.5457 39.6087 18.2025 38.7592 17.5271 38.0474C16.8406 37.347 16.0213 36.9912 15.047 36.9912H8.38157C7.96083 36.9912 7.55116 36.9452 7.16364 36.8534C6.30002 36.6353 5.5139 36.1875 4.8385 35.5102C3.84201 34.5228 3.35484 33.3059 3.35484 31.8823C3.35484 31.8479 3.35484 31.8134 3.35484 31.779C3.37699 30.3899 3.87523 29.2189 4.8385 28.266C5.82392 27.2786 7.00863 26.785 8.38157 26.785H12.5779V23.1571H8.38157C7.00863 23.1571 5.82392 22.6635 4.8385 21.6762C3.84201 20.6774 3.35484 19.4719 3.35484 18.0483V18.0254C3.35484 16.6133 3.85309 15.4078 4.8385 14.432C5.52497 13.7431 5.93464 13.3069 6.79826 13.0887V10.586C6.79826 10.1842 6.82041 9.78235 6.87577 9.39202C5.04887 9.63311 3.83094 10.4597 2.48015 11.8718C0.819334 13.5824 0 15.6259 0 18.0254V18.0483C0 19.3915 0.287874 20.6659 0.874695 21.8828C1.46152 23.1112 2.25871 24.133 3.26627 24.9481C2.23656 25.7977 1.43937 26.8309 0.863623 28.0364C0.298946 29.2074 0.0221442 30.4473 0 31.7675C0 31.7905 0 31.8364 0 31.8708C0 34.2588 0.819334 36.3138 2.44693 38.0359C3.79773 39.4595 5.38103 40.2975 7.19686 40.5386C7.57331 40.5846 7.94976 40.619 8.34835 40.619H18.5125H18.5457Z" fill="white"/>
<path d="M20.1181 18.7804C20.1181 18.6771 20.107 15.1641 20.107 15.1641H12.9102V34.8531H20.0959V31.2368H16.3868V18.7689H20.107L20.1181 18.7804ZM24.3365 15.1641V18.7804H28.4222V31.2483H24.3255V34.8646H31.8988V15.1641H24.3255H24.3365Z" fill="white"/>
<path d="M98.9169 30.0452C99.2712 30.0452 99.537 29.7582 99.537 29.4138C99.537 29.0464 99.2712 28.7709 98.9169 28.7709C98.5848 28.7709 98.308 29.0579 98.308 29.4023C98.308 29.7811 98.5848 30.0452 98.9169 30.0452ZM105.361 30.0452C105.715 30.0452 105.981 29.7582 105.981 29.4138C105.981 29.0464 105.704 28.7709 105.361 28.7709C105.018 28.7709 104.741 29.0579 104.741 29.4023C104.741 29.7811 105.029 30.0452 105.361 30.0452ZM74.0047 29.7926C74.359 29.7926 74.6137 29.4826 74.6137 29.1612C74.6137 28.7709 74.3369 28.4953 74.0047 28.4953C73.6504 28.4953 73.3847 28.8053 73.3847 29.1382C73.3847 29.5056 73.6394 29.7926 74.0047 29.7926ZM103.744 30.0452C104.099 30.0452 104.364 29.7582 104.364 29.4138C104.364 29.0464 104.077 28.7709 103.744 28.7709C103.412 28.7709 103.124 29.0579 103.124 29.4023C103.124 29.7811 103.412 30.0452 103.744 30.0452ZM100.533 30.0452C100.888 30.0452 101.153 29.7582 101.153 29.4138C101.153 29.0464 100.888 28.7709 100.533 28.7709C100.201 28.7709 99.9245 29.0579 99.9245 29.4023C99.9245 29.7811 100.201 30.0452 100.533 30.0452ZM66.365 30.0452C66.7193 30.0452 66.985 29.7582 66.985 29.4138C66.985 29.0464 66.6972 28.7709 66.365 28.7709C66.0328 28.7709 65.756 29.0579 65.756 29.4023C65.756 29.7811 66.0439 30.0452 66.365 30.0452ZM120.209 30.0452C120.541 30.0452 120.818 29.7582 120.818 29.4138C120.818 29.0464 120.541 28.7709 120.209 28.7709C119.854 28.7709 119.589 29.0579 119.589 29.4023C119.589 29.7811 119.854 30.0452 120.209 30.0452ZM172.646 30.0452C173 30.0452 173.266 29.7582 173.266 29.4138C173.266 29.0464 172.978 28.7709 172.646 28.7709C172.314 28.7709 172.026 29.0579 172.026 29.4023C172.026 29.7811 172.314 30.0452 172.646 30.0452ZM173.642 29.4023C173.642 29.7811 173.941 30.0452 174.262 30.0452C174.617 30.0452 174.894 29.7582 174.894 29.4138C174.894 29.0464 174.606 28.7709 174.262 28.7709C173.919 28.7709 173.642 29.0579 173.642 29.4023ZM156.448 29.7926C156.802 29.7926 157.056 29.4826 157.056 29.1612C157.056 28.7709 156.769 28.4953 156.448 28.4953C156.093 28.4953 155.816 28.8053 155.816 29.1382C155.816 29.5056 156.093 29.7926 156.448 29.7926ZM173.443 28.4264C173.797 28.4264 174.052 28.1279 174.052 27.795C174.052 27.4276 173.786 27.1406 173.443 27.1406C173.1 27.1406 172.834 27.4506 172.834 27.795C172.834 28.1394 173.111 28.4264 173.443 28.4264ZM121.825 30.0452C122.146 30.0452 122.434 29.7582 122.434 29.4138C122.434 29.0464 122.157 28.7709 121.825 28.7709C121.471 28.7709 121.194 29.0579 121.194 29.4023C121.194 29.7811 121.471 30.0452 121.825 30.0452ZM136.994 30.0452C137.348 30.0452 137.614 29.7582 137.614 29.4138C137.614 29.0464 137.315 28.7709 136.994 28.7709C136.673 28.7709 136.363 29.0579 136.363 29.4023C136.363 29.7811 136.662 30.0452 136.994 30.0452ZM154.831 29.7926C155.185 29.7926 155.44 29.4826 155.44 29.1612C155.44 28.7709 155.174 28.4953 154.831 28.4953C154.477 28.4953 154.211 28.8053 154.211 29.1382C154.211 29.5056 154.477 29.7926 154.831 29.7926ZM75.6213 29.7926C75.9756 29.7926 76.2302 29.4826 76.2302 29.1612C76.2302 28.7709 75.9534 28.4953 75.6213 28.4953C75.267 28.4953 75.0012 28.8053 75.0012 29.1382C75.0012 29.5056 75.278 29.7926 75.6213 29.7926ZM64.7485 30.0452C65.1028 30.0452 65.3796 29.7582 65.3796 29.4138C65.3796 29.0464 65.0917 28.7709 64.7485 28.7709C64.4052 28.7709 64.1284 29.0579 64.1284 29.4023C64.1284 29.7811 64.4274 30.0452 64.7485 30.0452ZM110.808 30.4585V34.2011L108.483 30.0452H107.143L108.129 31.2621L110.011 34.5915H107.896L107.465 35.5329H110.343C110.808 35.5329 111.174 35.3836 111.439 35.0622C111.694 34.7752 111.827 34.4078 111.827 33.9715V28.7823L110.587 29.0694L110.83 30.47L110.808 30.4585ZM113.089 30.16V35.5329H114.086V30.16L114.196 28.7709L112.934 28.8742L113.089 30.1715V30.16ZM147.357 30.3896V33.719C147.357 34.293 147.114 34.58 146.615 34.58H144.744C144.246 34.58 144.002 34.3045 144.002 33.7534V32.812L144.124 31.7213C143.637 31.5606 143.161 31.4803 142.663 31.4803C141.124 31.4803 140.183 32.3872 140.138 33.8912C140.127 34.3619 139.895 34.5915 139.441 34.5915H138.444C137.946 34.5915 137.702 34.3159 137.702 33.7649V31.1014L136.496 31.3884L136.695 32.7546V33.7764C136.695 34.3274 136.451 34.603 135.953 34.603H134.746C134.259 34.603 134.015 34.3159 134.015 33.7419V28.7938L132.831 29.0808L132.997 30.4241V33.9945C132.997 34.9703 133.573 35.5558 134.503 35.5558H136.208C136.595 35.5558 136.916 35.4525 137.182 35.2459C137.426 35.4525 137.769 35.5558 138.167 35.5558H139.695C139.983 35.5558 140.238 35.4984 140.459 35.3721C140.758 35.8773 141.19 36.1528 141.755 36.1528C142.452 36.1528 143.05 35.8429 143.549 35.2344C143.814 35.4525 144.135 35.5558 144.512 35.5558H146.859C147.789 35.5558 148.365 34.9703 148.365 33.9945V28.7364L147.191 29.0349L147.357 30.4241V30.3896ZM143.006 34.7866C142.707 35.0966 142.386 35.2573 142.032 35.2573C141.544 35.2573 141.179 34.7407 141.179 33.8452C141.179 32.7431 141.6 32.2035 142.441 32.2035C142.607 32.2035 142.773 32.2265 142.928 32.2839L143.006 32.8694V34.7866ZM149.638 30.16V35.5329H150.635V30.16L150.745 28.7709L149.483 28.8742L149.638 30.1715V30.16ZM175.48 31.3769L175.658 32.7431V33.7764C175.658 34.3274 175.414 34.603 174.938 34.603C174.617 34.603 174.318 34.4767 174.063 34.2126V31.5032L173.078 31.7328V33.7764C173.078 34.3274 172.834 34.603 172.358 34.603C172.004 34.603 171.716 34.4767 171.461 34.2356V31.5032L170.465 31.7328L170.443 33.7534C170.443 34.3045 170.199 34.58 169.723 34.58H168.505C168.007 34.58 167.763 34.2815 167.763 33.7075V31.0899L166.556 31.3769L166.756 32.7776V35.4181C166.756 36.4628 166.302 37.1401 165.361 37.4386L165.582 37.8519C166.911 37.4731 167.63 36.6809 167.752 35.464C167.907 35.5099 168.084 35.5329 168.261 35.5329H169.955C170.409 35.5329 170.775 35.3951 171.041 35.1311C171.107 35.0622 171.184 34.9818 171.229 34.9014C171.616 35.3147 172.081 35.5329 172.602 35.5329C173.122 35.5329 173.554 35.3377 173.82 34.9359C174.196 35.3377 174.65 35.5329 175.181 35.5329C176.067 35.5329 176.654 34.9359 176.654 34.0174V31.1014L175.458 31.3884L175.48 31.3769ZM162.593 30.9407H160.71L161.607 29.9993L163.046 28.7709H161.607C160.954 29.586 160.024 30.6192 158.806 31.8476H162.371C163.511 31.8476 164.076 32.2495 164.076 33.0531V34.5915H157.931C157.444 34.5915 157.189 34.3045 157.189 33.7419V30.2289C156.813 30.2978 156.414 30.3896 155.971 30.5159L156.038 30.9866H155.717C155.008 30.9866 154.432 31.1932 153.99 31.618C153.558 32.0313 153.347 32.5709 153.347 33.2483C153.347 34.5111 154.001 35.3033 155.086 35.3033C155.595 35.3033 156.038 35.1999 156.392 35.0048C156.713 35.3607 157.145 35.5329 157.677 35.5329H165.073V32.8809C165.073 31.6754 164.165 30.9522 162.581 30.9522M156.204 34.3045C155.916 34.3963 155.628 34.4307 155.318 34.4307C154.698 34.4307 154.388 33.9715 154.377 33.0531C154.377 32.6742 154.499 32.3413 154.753 32.0772C155.008 31.8132 155.307 31.6869 155.661 31.6754C155.827 31.6754 156.016 31.6754 156.204 31.6525V34.293V34.3045ZM131.015 31.5836C130.561 31.2392 129.985 31.067 129.277 31.067C128.623 31.067 127.948 31.3655 127.261 31.9624C126.686 32.4331 126.254 32.9612 125.955 33.5238V30.4815L126.066 29.1038L124.803 29.2186L124.958 30.5044V34.603H122.578V31.1129H121.094C120.375 31.1129 119.81 31.331 119.378 31.7673C118.946 32.2035 118.736 32.8005 118.736 33.5353C118.736 34.8096 119.5 35.5444 120.563 35.5444H121.559C121.482 36.6465 120.973 37.1861 119.987 37.1861C119.323 37.1861 118.791 36.9679 118.415 36.5661C117.983 36.1069 117.762 35.4066 117.762 34.4882V33.5582H116.776V34.5226C116.776 36.635 117.883 37.8634 119.899 37.8634C120.718 37.8634 121.36 37.6338 121.825 37.209C122.268 36.8072 122.512 36.2561 122.567 35.5558H131.69V33.0072C131.69 32.4102 131.458 31.951 131.004 31.6065M121.548 34.6144H120.696C120.054 34.6144 119.744 34.1897 119.744 33.3631C119.744 32.3413 120.164 31.8247 121.017 31.8247H121.548V34.603V34.6144ZM130.672 34.6144H125.966C126.121 34.1667 126.498 33.6501 127.106 33.0531C127.826 32.3413 128.468 31.9854 129.044 31.9854C130.129 31.9854 130.672 32.3872 130.672 33.1794V34.6144ZM71.3917 33.2483L71.2367 32.8809C70.8603 32.9957 70.5502 33.1909 70.2956 33.4893C70.052 33.7993 69.9191 34.1208 69.9081 34.4652C69.8638 35.1425 70.1959 35.5558 70.672 35.5558C71.0928 35.5558 71.3031 35.3377 71.3031 34.9014C71.3031 34.4652 71.0928 34.2471 70.661 34.2241C70.6277 34.1667 70.6167 34.0978 70.6167 34.0289C70.6167 33.6616 70.9931 33.3401 71.3917 33.2483ZM65.5678 30.757C65.1581 30.757 64.8038 30.8718 64.4938 31.0899C64.0731 31.3999 63.8627 31.8476 63.8627 32.4446C63.8627 33.5467 64.4274 34.0978 65.5567 34.0978C65.8446 34.0978 66.0661 34.0519 66.2211 33.9715C66.1546 34.3963 65.7892 34.603 65.1028 34.603H62.1908V32.9957C62.1908 32.3987 61.9583 31.9395 61.5043 31.5951C61.0504 31.2506 60.4746 31.0784 59.766 31.0784C59.1128 31.0784 58.4374 31.3769 57.7509 31.9739C57.1752 32.4446 56.7434 32.9727 56.4444 33.5353V30.4929L56.5551 29.1153L55.2929 29.2301L55.4479 30.5159V34.6144H53.6542C53.156 34.6144 52.9124 34.3159 52.9124 33.7419V31.1244L51.7056 31.4114L51.9049 32.812V35.4525C51.9159 36.4972 51.4509 37.1746 50.5098 37.4731L50.7312 37.8864C52.0599 37.5075 52.7685 36.7154 52.8903 35.4984C53.0453 35.5444 53.2114 35.5673 53.3996 35.5673H65.0031C66.5532 35.5673 67.2618 34.7981 67.2618 32.9153V32.4217C67.2618 31.9395 67.1179 31.5491 66.8411 31.2621C66.5311 30.9292 66.0882 30.7799 65.5235 30.7799M61.139 34.6374H56.4333C56.5883 34.1897 56.9759 33.673 57.5627 33.076C58.2824 32.3643 58.9246 32.0084 59.5114 32.0084C60.5964 32.0084 61.139 32.4102 61.139 33.2023V34.6374ZM66.2543 33.3057C66.0439 33.409 65.7782 33.4549 65.4792 33.4549C65.0474 33.4549 64.826 33.1564 64.826 32.5365C64.826 31.7902 65.0696 31.4114 65.5567 31.4114C66.0439 31.4114 66.2764 31.7558 66.2764 32.4446C66.2764 32.7776 66.2764 33.0531 66.2653 33.2942M77.9353 36.612C77.6142 36.612 77.3153 36.8991 77.3153 37.2435C77.3153 37.6223 77.6032 37.8864 77.9353 37.8864C78.2896 37.8864 78.5664 37.5764 78.5664 37.255C78.5664 36.8876 78.2675 36.612 77.9353 36.612ZM79.4522 32.7546V33.7878C79.4522 34.3389 79.2086 34.6144 78.7104 34.6144H77.0496C76.5513 34.6144 76.3077 34.3274 76.3077 33.7649V30.2518C75.9313 30.3207 75.5216 30.4126 75.0898 30.5389L75.1452 31.0096H74.8241C74.1155 31.0096 73.5397 31.2162 73.0968 31.641C72.665 32.0543 72.4546 32.5939 72.4546 33.2712C72.4546 34.5341 73.1079 35.3262 74.193 35.3262C74.7134 35.3262 75.1452 35.2229 75.4995 35.0277C75.8206 35.3836 76.2524 35.5558 76.7838 35.5558H78.9429C79.8619 35.5558 80.4376 34.9703 80.4376 34.0404V31.1358L79.264 31.4114L79.4411 32.7546H79.4522ZM75.3223 34.3389C75.0344 34.4307 74.7466 34.4652 74.4366 34.4652C73.8165 34.4652 73.5065 34.006 73.4954 33.0875C73.4954 32.7087 73.6172 32.3757 73.8719 32.1117C74.1265 31.8476 74.4255 31.7213 74.7687 31.7099C74.9348 31.7099 75.123 31.7099 75.3112 31.6869V34.3274L75.3223 34.3389ZM85.3979 33.4779C85.3868 32.8005 85.1986 32.238 84.8222 31.8017C84.4457 31.354 83.9475 31.1244 83.3274 31.1244C83.1614 31.1588 83.0506 31.1703 83.0174 31.1703C83.0506 31.4573 83.0728 31.6525 83.0728 31.7673C83.1835 31.7099 83.2942 31.6984 83.3828 31.6984C83.6817 31.6984 83.9142 31.8362 84.0914 32.1002C84.2796 32.3987 84.3904 32.8005 84.3904 33.3171V34.4193L84.3571 34.6374H81.7995L81.5338 35.5788H85.5529L85.3979 34.6259V33.5008V33.4779ZM104.519 30.7685C104.11 30.7685 103.744 30.8833 103.445 31.1014C103.036 31.4114 102.825 31.8591 102.825 32.4561C102.825 33.5582 103.39 34.1093 104.53 34.1093C104.818 34.1093 105.04 34.0634 105.195 33.983C105.128 34.4078 104.763 34.6144 104.077 34.6144H101.596C101.109 34.6144 100.866 34.3389 100.866 33.7878V31.1244L99.6588 31.4114L99.8691 32.7776V33.7993C99.8691 34.3504 99.6145 34.6259 99.1162 34.6259H97.5551V33.0875C97.5551 32.4905 97.3225 32.0313 96.8686 31.6984C96.4146 31.354 95.8278 31.1818 95.1081 31.1818C93.8016 31.1818 92.6058 32.0658 91.5097 33.8338V31.5377L90.5132 31.7673L90.4911 33.7878C90.4911 34.3389 90.2475 34.6144 89.7603 34.6144H88.5645C88.0774 34.6144 87.8338 34.3274 87.8338 33.7534V28.8053L86.6491 29.0923L86.8151 30.4355V34.006C86.8151 34.9818 87.3909 35.5673 88.3099 35.5673H99.3709C99.7473 35.5673 100.068 35.464 100.345 35.2573C100.6 35.464 100.932 35.5673 101.331 35.5673H103.966C105.516 35.5673 106.236 34.7981 106.236 32.9153V32.4217C106.236 31.9395 106.092 31.5491 105.804 31.2621C105.483 30.9292 105.051 30.7799 104.486 30.7799M96.5254 34.6374H91.9526C92.1076 34.2011 92.4508 33.696 92.9712 33.1449C93.6245 32.4331 94.2667 32.0772 94.8756 32.0772C95.9718 32.0772 96.5364 32.4791 96.5364 33.2712V34.6374H96.5254ZM105.228 33.3057C105.018 33.409 104.752 33.4549 104.442 33.4549C104.01 33.4549 103.778 33.1564 103.778 32.5365C103.778 31.7902 104.021 31.4114 104.508 31.4114C104.996 31.4114 105.228 31.7558 105.228 32.4446C105.228 32.7776 105.228 33.0531 105.228 33.2942M79.5186 36.612C79.1865 36.612 78.8875 36.8991 78.8875 37.2435C78.8875 37.6223 79.1865 37.8864 79.5186 37.8864C79.8729 37.8864 80.1387 37.5764 80.1387 37.255C80.1387 36.8876 79.8397 36.612 79.5186 36.612Z" fill="white"/>
<path d="M51.6504 41.6406H54.5956V42.2147H52.3479V43.8564H54.4738V44.4419H52.3479V46.3247H54.6952V46.8987H51.6504V41.6406Z" fill="white"/>
<path d="M59.4912 45.098C59.4247 46.0853 59.004 47.0038 57.7528 47.0038C56.1252 47.0038 55.9038 45.5917 55.9038 44.2714C55.9038 42.9512 56.1695 41.5391 57.7528 41.5391C58.9154 41.5391 59.4026 42.1475 59.4358 43.1808H58.694C58.6829 42.5838 58.4725 42.0786 57.7418 42.0786C56.7674 42.0786 56.6346 43.066 56.6346 44.2829C56.6346 45.4998 56.7564 46.4872 57.7418 46.4872C58.5943 46.4872 58.7161 45.7524 58.7383 45.1095H59.4801L59.4912 45.098Z" fill="white"/>
<path d="M64.3854 44.2714C64.3854 45.5917 64.1197 47.0038 62.5474 47.0038C60.9752 47.0038 60.7095 45.5917 60.7095 44.2714C60.7095 42.9512 60.9752 41.5391 62.5474 41.5391C64.1197 41.5391 64.3854 42.9397 64.3854 44.2714ZM61.4402 44.2714C61.4402 45.4884 61.5731 46.4757 62.5474 46.4757C63.5218 46.4757 63.6546 45.4884 63.6546 44.2714C63.6546 43.0545 63.5218 42.0672 62.5474 42.0672C61.5731 42.0672 61.4402 43.0545 61.4402 44.2714Z" fill="white"/>
<path d="M65.8691 41.6406H66.7771L68.6704 46.0262H68.6925V41.6406H69.3901V46.8987H68.4268L66.5888 42.6394H66.5778V46.8987H65.8691V41.6406Z" fill="white"/>
<path d="M74.5592 44.2714C74.5592 45.5917 74.2935 47.0038 72.7213 47.0038C71.149 47.0038 70.8833 45.5917 70.8833 44.2714C70.8833 42.9512 71.138 41.5391 72.7213 41.5391C74.3046 41.5391 74.5592 42.9397 74.5592 44.2714ZM71.6141 44.2714C71.6141 45.4884 71.7469 46.4757 72.7213 46.4757C73.6956 46.4757 73.8285 45.4884 73.8285 44.2714C73.8285 43.0545 73.7067 42.0672 72.7213 42.0672C71.7359 42.0672 71.6141 43.0545 71.6141 44.2714Z" fill="white"/>
<path d="M76.0547 41.6406H77.2394L78.3909 45.8081H78.402L79.5424 41.6406H80.7271V46.8987H80.0296V42.3065H80.0074L78.7452 46.8987H78.0366L76.7744 42.3065H76.7633V46.8987H76.0547V41.6406Z" fill="white"/>
<path d="M83.0192 41.6406H82.3105V46.8987H83.0192V41.6406Z" fill="white"/>
<path d="M88.0787 45.098C88.0123 46.0853 87.5916 47.0038 86.3404 47.0038C84.7128 47.0038 84.5024 45.5917 84.5024 44.2714C84.5024 42.9512 84.7682 41.5391 86.3404 41.5391C87.503 41.5391 88.0012 42.1475 88.0234 43.1808H87.2926C87.2815 42.5838 87.0712 42.0786 86.3404 42.0786C85.3661 42.0786 85.2332 43.066 85.2332 44.2829C85.2332 45.4998 85.3661 46.4872 86.3404 46.4872C87.193 46.4872 87.3147 45.7524 87.3369 45.1095H88.0787V45.098Z" fill="white"/>
<path d="M91.6553 46.3591L94.224 42.2147H91.7992V41.6406H94.9548V42.2376L92.386 46.3247H94.988V46.8987H91.6553V46.3591Z" fill="white"/>
<path d="M99.8809 44.2714C99.8809 45.5917 99.6151 47.0038 98.0318 47.0038C96.4485 47.0038 96.1938 45.5917 96.1938 44.2714C96.1938 42.9512 96.4596 41.5391 98.0318 41.5391C99.6041 41.5391 99.8809 42.9397 99.8809 44.2714ZM96.9357 44.2714C96.9357 45.4884 97.0685 46.4757 98.0429 46.4757C99.0172 46.4757 99.1501 45.4884 99.1501 44.2714C99.1501 43.0545 99.0172 42.0672 98.0429 42.0672C97.0685 42.0672 96.9357 43.0545 96.9357 44.2714Z" fill="white"/>
<path d="M101.365 41.6406H102.273L104.166 46.0262H104.177V41.6406H104.886V46.8987H103.911L102.084 42.6394H102.062V46.8987H101.365V41.6406Z" fill="white"/>
<path d="M106.446 41.6406H109.403V42.2147H107.144V43.8564H109.27V44.4419H107.144V46.3247H109.491V46.8987H106.446V41.6406Z" fill="white"/>
<path d="M113.213 42.9966C113.213 42.457 112.991 42.0667 112.316 42.0667C111.729 42.0667 111.375 42.3652 111.375 42.9162C111.375 44.3972 114.065 43.5132 114.065 45.4305C114.065 46.6474 113.102 46.9918 112.294 46.9918C110.954 46.9918 110.566 46.3604 110.566 45.2353H111.275C111.275 45.8208 111.319 46.4522 112.349 46.4522C112.914 46.4522 113.346 46.0849 113.346 45.5223C113.346 44.0299 110.644 44.9024 110.644 42.9622C110.644 42.4685 110.865 41.5156 112.316 41.5156C113.412 41.5156 113.899 42.0208 113.921 42.9736H113.224L113.213 42.9966Z" fill="white"/>
<path d="M121.484 45.098C121.417 46.0853 120.997 47.0038 119.746 47.0038C118.118 47.0038 117.896 45.5917 117.896 44.2714C117.896 42.9512 118.162 41.5391 119.746 41.5391C120.908 41.5391 121.395 42.1475 121.428 43.1808H120.698C120.676 42.5838 120.476 42.0786 119.746 42.0786C118.76 42.0786 118.638 43.066 118.638 44.2829C118.638 45.4998 118.76 46.4872 119.746 46.4872C120.598 46.4872 120.72 45.7524 120.742 45.1095H121.473L121.484 45.098Z" fill="white"/>
<path d="M126.378 44.2714C126.378 45.5917 126.112 47.0038 124.54 47.0038C122.967 47.0038 122.702 45.5917 122.702 44.2714C122.702 42.9512 122.967 41.5391 124.54 41.5391C126.112 41.5391 126.378 42.9397 126.378 44.2714ZM123.432 44.2714C123.432 45.4884 123.554 46.4757 124.54 46.4757C125.525 46.4757 125.647 45.4884 125.647 44.2714C125.647 43.0545 125.514 42.0672 124.54 42.0672C123.565 42.0672 123.432 43.0545 123.432 44.2714Z" fill="white"/>
<path d="M127.882 41.6406H129.067L130.207 45.8081H130.229L131.37 41.6406H132.554V46.8987H131.846V42.3065H131.835L130.572 46.8987H129.864L128.602 42.3065H128.579V46.8987H127.882V41.6406Z" fill="white"/>
<path d="M134.138 41.6406H135.6C136.098 41.6406 137.371 41.6406 137.371 43.1561C137.371 44.1319 136.696 44.683 135.721 44.683H134.847V46.9102H134.138V41.6521V41.6406ZM134.847 44.1434H135.688C136.198 44.1434 136.64 43.8219 136.64 43.1216C136.64 42.5476 136.342 42.1687 135.644 42.1687H134.847V44.1434Z" fill="white"/>
<path d="M139.442 41.6406H140.383L141.922 46.8987H141.191L140.781 45.4522H138.955L138.534 46.8987H137.792L139.442 41.6406ZM139.098 44.9241H140.638L139.907 42.3869H139.896L139.098 44.9241Z" fill="white"/>
<path d="M142.963 41.6406H143.882L145.764 46.0262H145.786V41.6406H146.484V46.8987H145.521L143.683 42.6394H143.672V46.8987H142.963V41.6406Z" fill="white"/>
<path d="M147.568 41.6406H148.343L149.44 44.0975L150.558 41.6406H151.3L149.783 44.8322V46.8987H149.085V44.8322L147.568 41.6406Z" fill="white"/>
<path d="M151.622 46.1172H152.363V46.7601C152.363 47.3226 152.319 47.8163 151.622 47.9885V47.6441C151.909 47.5178 151.976 47.3686 151.976 47.0816V46.9093H151.622V46.1287V46.1172Z" fill="white"/>
<path d="M158.319 46.7397C158.076 46.9119 157.744 47.0038 157.334 47.0038C155.762 47.0038 155.496 45.5917 155.496 44.2714C155.496 42.9512 155.762 41.5391 157.334 41.5391C158.906 41.5391 159.172 42.9397 159.172 44.2714C159.172 45.0291 159.083 45.8213 158.707 46.3494L159.283 46.8431L158.884 47.2219L158.308 46.7397H158.319ZM157.301 45.8902L157.688 45.4884L158.22 45.9246C158.397 45.5343 158.441 44.9373 158.441 44.2599C158.441 43.043 158.308 42.0557 157.334 42.0557C156.36 42.0557 156.227 43.043 156.227 44.2599C156.227 45.4769 156.349 46.4642 157.334 46.4642C157.544 46.4642 157.722 46.4183 157.854 46.3379L157.301 45.8787V45.8902Z" fill="white"/>
<path d="M161.774 41.6406H162.715L164.254 46.8987H163.512L163.102 45.4522H161.276L160.855 46.8987H160.124L161.774 41.6406ZM161.431 44.9241H162.97L162.239 42.3869H162.228L161.431 44.9241Z" fill="white"/>
<path d="M166.591 46.8987H165.893V42.2147H164.454V41.6406H168.041V42.2147H166.591V46.8987Z" fill="white"/>
<path d="M169.89 41.6406H170.831L172.37 46.8987H171.639L171.23 45.4522H169.403L168.971 46.8987H168.229L169.879 41.6406H169.89ZM169.547 44.9241H171.075L170.355 42.3869H170.333L169.547 44.9241Z" fill="white"/>
<path d="M173.399 41.6406H175.248C176.145 41.6406 176.71 42.1343 176.71 42.9609C176.71 43.5349 176.488 44.1434 175.824 44.2811C176.322 44.35 176.61 44.7289 176.632 45.1766L176.676 46.0721C176.71 46.6461 176.809 46.7954 176.975 46.8987H176.134C176.012 46.7839 175.957 46.405 175.946 46.141L175.89 45.3259C175.835 44.6026 175.403 44.5567 175.038 44.5567H174.086V46.8987H173.377V41.6406H173.399ZM174.108 44.0286H174.805C175.226 44.0286 175.979 44.0286 175.979 43.0183C175.979 42.5017 175.602 42.1802 174.949 42.1802H174.108V44.0286Z" fill="white"/>
</g>
<defs>
<clipPath id="clip0_4325_69817">
<rect width="186" height="48" fill="white"/>
</clipPath>
</defs>
</svg>
